<svg width="323" height="39" viewBox="0 0 323 39" fill="none" xmlns="http://www.w3.org/2000/svg">
<path d="M246.27 28.4784V18.7442H250.299C252.76 18.7442 254.563 19.8302 254.563 22.9072V24.3184C254.563 27.3648 252.76 28.4815 250.299 28.4815H246.27V28.4784ZM251.959 24.3154V22.9042C251.959 21.5911 251.645 20.6892 250.295 20.6892H248.871V26.5303H250.295C251.642 26.5303 251.959 25.6253 251.959 24.3154Z" fill="black"/>
<path d="M260.286 23.5944C260.147 23.3827 259.925 23.0882 259.472 23.0882C258.797 23.0882 258.405 23.5116 258.405 24.4565V28.4784H256.053V21.4254H258.34V21.9592C258.575 21.6923 259.093 21.2843 259.986 21.2843C260.879 21.2843 261.585 21.6801 262.038 22.4685L260.283 23.5975L260.286 23.5944Z" fill="black"/>
<path d="M268.74 27.4046C268.191 28.2667 267.25 28.6195 265.825 28.6195C263.347 28.6195 262.284 27.1807 262.284 25.432V24.4442C262.284 22.2568 263.538 21.2843 265.577 21.2843C267.85 21.2843 268.869 22.4562 268.869 24.6559V25.4903H264.636C264.666 26.2941 264.888 26.8463 265.842 26.8463C266.579 26.8463 266.736 26.6499 267.018 26.3248L268.743 27.4108L268.74 27.4046ZM264.649 24.076H266.514C266.466 23.2999 266.139 23.0606 265.59 23.0606C264.98 23.0606 264.711 23.441 264.649 24.076Z" fill="black"/>
<path d="M272.691 24.1742H274.085V23.9626C274.085 23.2723 273.945 23.0023 272.847 23.0023C272.172 23.0023 271.859 23.1158 271.579 23.4809L269.933 22.4501C270.543 21.5758 271.453 21.2782 273.117 21.2782C275.155 21.2782 276.379 21.7997 276.379 23.9718V28.4723H274.092V27.8924C273.826 28.2729 273.403 28.6134 272.541 28.6134C271.003 28.6134 269.814 27.8495 269.814 26.3708C269.814 24.8921 271.068 24.1712 272.697 24.1712L272.691 24.1742ZM274.085 25.6683H273.018C272.421 25.6683 272.094 25.8523 272.094 26.3156C272.094 26.7236 272.455 26.9506 273.052 26.9506C273.836 26.9506 274.088 26.5273 274.088 25.8769V25.6652L274.085 25.6683Z" fill="black"/>
<path d="M277.868 21.4224H280.156V21.9562C280.421 21.6463 280.987 21.2813 281.802 21.2813C282.695 21.2813 283.462 21.5758 283.949 22.1709C284.437 21.6924 285.156 21.2813 286.162 21.2813C287.887 21.2813 288.875 22.2108 288.875 24.0454V28.4753H286.523V24.4534C286.523 23.5085 286.257 23.0851 285.521 23.0851C284.958 23.0851 284.549 23.395 284.549 24.3123V28.4753H282.197V24.4534C282.197 23.4103 281.822 23.0851 281.226 23.0851C280.629 23.0851 280.224 23.4226 280.224 24.4381V28.4722H277.872V21.4193L277.868 21.4224Z" fill="black"/>
<path d="M300.591 27.4046C300.011 28.2514 299.149 28.6195 297.676 28.6195C295.386 28.6195 294.135 27.3218 294.135 25.432V24.4442C294.135 22.3703 295.389 21.2843 297.833 21.2843C299.07 21.2843 300.059 21.6923 300.591 22.4961L298.835 23.5975C298.617 23.3152 298.348 23.0606 297.768 23.0606C296.732 23.0606 296.483 23.5821 296.483 24.6252V25.2449C296.483 26.1775 296.609 26.8402 297.768 26.8402C298.3 26.8402 298.6 26.6837 298.849 26.3186L300.587 27.4046H300.591Z" fill="black"/>
<path d="M303.948 24.1742H305.342V23.9626C305.342 23.2723 305.203 23.0023 304.105 23.0023C303.43 23.0023 303.117 23.1158 302.834 23.4809L301.187 22.4501C301.797 21.5758 302.708 21.2782 304.368 21.2782C306.406 21.2782 307.63 21.7997 307.63 23.9718V28.4723H305.339V27.8924C305.073 28.2729 304.651 28.6134 303.788 28.6134C302.251 28.6134 301.061 27.8495 301.061 26.3708C301.061 24.8921 302.316 24.1712 303.945 24.1712L303.948 24.1742ZM305.342 25.6683H304.276C303.679 25.6683 303.352 25.8523 303.352 26.3156C303.352 26.7236 303.713 26.9506 304.31 26.9506C305.094 26.9506 305.346 26.5273 305.346 25.8769V25.6652L305.342 25.6683Z" fill="black"/>
<path d="M313.356 23.5944C313.217 23.3827 312.995 23.0882 312.542 23.0882C311.867 23.0882 311.475 23.5116 311.475 24.4565V28.4784H309.123V21.4254H311.413V21.9592C311.649 21.6923 312.167 21.2843 313.06 21.2843C313.953 21.2843 314.658 21.6801 315.112 22.4685L313.356 23.5975V23.5944Z" fill="black"/>
<path d="M319.894 18.7411H322.246V28.4754H319.894V28.1655C319.519 28.4478 319.032 28.6165 318.422 28.6165C316.414 28.6165 315.35 27.3188 315.35 25.429V24.4412C315.35 22.3673 316.605 21.2813 318.422 21.2813C318.97 21.2813 319.472 21.3948 319.894 21.6617V18.7411ZM319.894 25.2449V24.4688C319.894 23.5239 319.598 23.0576 318.797 23.0576C317.951 23.0576 317.699 23.5791 317.699 24.6222V25.2419C317.699 26.1745 317.825 26.8371 318.797 26.8371C319.768 26.8371 319.894 26.1745 319.894 25.2419V25.2449Z" fill="black"/>
<path fill-rule="evenodd" clip-rule="evenodd" d="M233.333 0.0582613C233.79 0.128821 236.469 0.898846 236.394 2.81317C236.316 4.72443 236.04 5.16006 231.803 7.63273C227.566 10.1054 222.173 13.3788 219.562 17.2718C216.951 21.1649 214.906 26.9355 217.268 28.2884C219.631 29.6413 222.463 29.129 225.684 26.9109C228.906 24.6929 234.1 20.0267 234.1 20.0267C234.1 20.0267 229.73 21.4287 228.745 20.7139C227.76 19.9991 227.961 18.5879 229.509 17.959C231.056 17.3301 237.57 16.0907 238.689 16.5816C239.807 17.0724 240.822 17.594 240.219 20.7139C239.616 23.8339 235.801 32.5711 234.864 33.7952C233.927 35.0192 233.889 35.5407 233.333 35.1726C232.778 34.8045 233.603 30.1628 234.097 28.2884C234.591 26.414 235.628 22.0914 235.628 22.0914C235.628 22.0914 234.939 23.7081 232.567 25.5335C230.194 27.3589 225.378 31.0648 221.093 31.7305C216.808 32.3962 210.843 30.2027 211.146 22.0883C211.453 13.977 215.574 9.97961 219.562 6.25527C223.547 2.53093 229.938 -0.457134 233.333 0.0582613Z" fill="black"/>
<path d="M72.6791 2.88708H38.7763V12.8455H72.6791V2.88708Z" fill="#02983B"/>
<path d="M69.082 24.8819L38.7715 38.4718V27.8928L72.6743 12.8454V19.4638C72.6743 21.6962 71.5653 23.7674 69.082 24.8785V24.8819Z" fill="#004097"/>
<path d="M112.197 2.88708H77.5299V12.8455H112.197V2.88708Z" fill="#02983B"/>
<path d="M33.9238 2.88708H0.0249939V12.8455H33.9238V2.88708Z" fill="#02983B"/>
<path d="M30.3315 24.8819L0.0249939 38.4718V27.8928L33.9238 12.8454V19.4638C33.9238 21.6962 32.8108 23.7674 30.3315 24.8785V24.8819Z" fill="#004097"/>
<path d="M77.5299 21.5522V26.6617C77.5299 29.3399 80.037 31.514 83.1342 31.514H112.197V21.5522H77.5299Z" fill="#004097"/>
<path d="M165.542 2.88708H162.247V20.5097H165.542V2.88708Z" fill="#004097"/>
<path d="M139.711 5.2498H135.379C135.402 5.03719 135.414 4.82115 135.414 4.59483V3.58321H124.222V5.60987H132.044C131.838 6.63863 130.38 9.64947 123.588 11.3881L124.475 12.9929C124.475 12.9929 132.341 11.6933 134.729 7.27646H139.707V9.15566H133.941V11.1823H139.707V14.032C138.436 13.5725 136.836 13.305 134.943 13.305C129.913 13.305 126.883 15.2013 126.883 17.5435C126.883 19.8856 129.913 21.782 134.943 21.782C139.973 21.782 142.999 19.8856 143.003 17.5469V2.88708H139.704V5.2498H139.711ZM134.947 19.7553C131.976 19.7553 130.186 18.7677 130.186 17.5469C130.186 16.3261 131.976 15.3385 134.947 15.3385C137.917 15.3385 139.711 16.3261 139.711 17.5469C139.711 18.7677 137.917 19.7553 134.947 19.7553Z" fill="#004097"/>
<path d="M180.628 17.5195V13.2467H187.04V11.22H174.121V5.60984H187.04V3.58318H170.814V11.6281C170.814 12.5231 171.654 13.2467 172.687 13.2467H177.333V17.5195H169.047V19.5461H188.914V17.5195H180.632H180.628Z" fill="#004097"/>
<path d="M147.589 17.5572C157.518 14.2857 158.73 6.55973 158.734 4.19015V3.58318H147.407V5.60984H155.154C154.742 8.44236 152.956 13.1095 146.539 15.7637L147.589 17.5572Z" fill="#004097"/>
<path d="M170.846 25.6572H169.487V31.2571H170.846V25.6572Z" fill="#004097"/>
<path d="M174.307 27.9887H171.82V28.9283H174.307V27.9887Z" fill="#004097"/>
<path d="M177.064 25.6571H175.274V31.257H177.064C179.539 31.257 180.791 30.314 180.791 28.4553C180.791 26.5967 179.535 25.6537 177.064 25.6537V25.6571ZM179.377 28.4588C179.377 29.3606 178.652 30.3174 177.309 30.3174H176.636V26.5967H177.309C178.652 26.5967 179.377 27.5534 179.377 28.4553V28.4588Z" fill="#004097"/>
<path d="M184.688 25.5643C182.704 25.5643 181.519 26.641 181.519 28.4448C181.519 30.2486 182.704 31.3562 184.688 31.3562C186.672 31.3562 187.856 30.2417 187.856 28.4448C187.856 26.6479 186.641 25.5643 184.688 25.5643ZM186.442 28.4448C186.442 29.3981 185.983 30.4166 184.688 30.4166C183.393 30.4166 182.933 29.3981 182.933 28.4448C182.933 27.5498 183.393 26.5073 184.688 26.5073C185.983 26.5073 186.442 27.5532 186.442 28.4448Z" fill="#004097"/>
<path d="M165.736 28.0196V28.9592H167.095V30.3411C166.861 30.3892 166.592 30.4132 166.291 30.4132C165.016 30.4132 164.16 29.6347 164.16 28.4722C164.16 27.3097 165.055 26.5004 166.437 26.5004C166.996 26.5004 167.622 26.6102 168.069 26.7919L168.212 26.8502V25.8009L168.18 25.794C167.574 25.6363 166.976 25.5643 166.295 25.5643C164.073 25.5643 162.75 26.6822 162.75 28.5545C162.75 30.4269 164.041 31.3562 166.295 31.3562C166.885 31.3562 167.527 31.267 168.374 31.0681L168.402 31.0613V28.0196H165.74H165.736Z" fill="#004097"/>
<path d="M134.959 27.9445L133.481 25.6743L133.469 25.6572H131.877L134.242 29.0452V31.2605H135.604V29.0452L137.917 25.6572H136.472L134.959 27.9445Z" fill="#004097"/>
<path d="M139.715 28.8326H142.218V27.893H139.715V26.5968H142.218V25.6572H138.357V31.2605H142.218V30.3175H139.715V28.8326Z" fill="#004097"/>
<path d="M146.116 25.5643C144.131 25.5643 142.943 26.641 142.943 28.4448C142.943 30.2486 144.127 31.3562 146.116 31.3562C148.104 31.3562 149.284 30.2417 149.284 28.4448C149.284 26.6479 148.072 25.5643 146.116 25.5643ZM146.116 30.4132C144.82 30.4132 144.361 29.3947 144.361 28.4414C144.361 27.5463 144.82 26.5039 146.116 26.5039C147.411 26.5039 147.87 27.5498 147.87 28.4414C147.87 29.3947 147.411 30.4132 146.116 30.4132Z" fill="#004097"/>
<path d="M154.183 29.7174L151.807 25.6778L151.799 25.6572H150.159V31.2605H151.462V27.2003L153.851 31.2399L153.863 31.2605H155.49V25.6572H154.183V29.7174Z" fill="#004097"/>
<path d="M128.978 28.0196V28.9592H130.333V30.3412C130.099 30.3892 129.83 30.4132 129.529 30.4132C128.257 30.4132 127.398 29.6348 127.398 28.4723C127.398 27.3098 128.293 26.5005 129.675 26.5005C130.234 26.5005 130.859 26.6102 131.307 26.792L131.45 26.8503V25.8009L131.418 25.7941C130.808 25.6363 130.21 25.5643 129.529 25.5643C127.307 25.5643 125.984 26.6822 125.984 28.5546C125.984 30.4269 127.279 31.3562 129.529 31.3562C130.123 31.3562 130.764 31.2671 131.608 31.0682L131.636 31.0613V28.0196H128.974H128.978Z" fill="#004097"/>
<path d="M159.356 28.0196V28.9592H160.71V30.3411C160.477 30.3892 160.207 30.4132 159.906 30.4132C158.631 30.4132 157.78 29.6347 157.78 28.4722C157.78 27.3097 158.671 26.5004 160.053 26.5004C160.611 26.5004 161.237 26.6102 161.685 26.7919L161.823 26.8502V25.8009L161.792 25.794C161.182 25.6363 160.584 25.5643 159.902 25.5643C157.681 25.5643 156.358 26.6822 156.358 28.5545C156.358 30.4269 157.649 31.3562 159.902 31.3562C160.493 31.3562 161.138 31.267 161.982 31.0681L162.009 31.0613V28.0196H159.348H159.356Z" fill="#004097"/>
</svg>
