<svg width="134" height="58" viewBox="0 0 134 58" fill="none" xmlns="http://www.w3.org/2000/svg">
<path d="M51.2853 32H27.3539V39.0295H51.2853V32Z" fill="#02983B"/>
<path d="M48.7462 47.5259L27.3506 57.1188V49.6512L51.2819 39.0295V43.7013C51.2819 45.2771 50.4991 46.7392 48.7462 47.5235V47.5259Z" fill="#004097"/>
<path d="M79.1802 32H54.7093V39.0295H79.1802V32Z" fill="#02983B"/>
<path d="M23.9285 32H0V39.0295H23.9285V32Z" fill="#02983B"/>
<path d="M21.3928 47.5259L0 57.1188V49.6512L23.9285 39.0295V43.7013C23.9285 45.2771 23.1429 46.7392 21.3928 47.5235V47.5259Z" fill="#004097"/>
<path d="M54.7093 45.1753V48.782C54.7093 50.6725 56.479 52.2072 58.6653 52.2072H79.1802V45.1753H54.7093Z" fill="#004097"/>
<path d="M116.836 32H114.51V44.4395H116.836V32Z" fill="#004097"/>
<path d="M98.6022 33.6678H95.5437C95.5604 33.5177 95.5688 33.3652 95.5688 33.2055V32.4914H87.6681V33.922H93.1897C93.0443 34.6481 92.0155 36.7734 87.2208 38.0007L87.8471 39.1335C87.8471 39.1335 93.3994 38.2161 95.0852 35.0984H98.5994V36.4249H94.5288V37.8555H98.5994V39.867C97.702 39.5426 96.5725 39.3538 95.2361 39.3538C91.6856 39.3538 89.5469 40.6924 89.5469 42.3457C89.5469 43.999 91.6856 45.3376 95.2361 45.3376C98.7867 45.3376 100.923 43.999 100.925 42.3481V32H98.5966V33.6678H98.6022ZM95.2389 43.907C93.1422 43.907 91.8785 43.2099 91.8785 42.3481C91.8785 41.4864 93.1422 40.7892 95.2389 40.7892C97.3357 40.7892 98.6022 41.4864 98.6022 42.3481C98.6022 43.2099 97.3357 43.907 95.2389 43.907Z" fill="#004097"/>
<path d="M127.485 42.3286V39.3125H132.011V37.8819H122.891V33.9218H132.011V32.4912H120.557V38.17C120.557 38.8017 121.15 39.3125 121.879 39.3125H125.159V42.3286H119.31V43.7592H133.333V42.3286H127.487H127.485Z" fill="#004097"/>
<path d="M104.163 42.3552C111.172 40.0459 112.027 34.5923 112.03 32.9197V32.4912H104.034V33.9218H109.503C109.212 35.9212 107.951 39.2157 103.422 41.0892L104.163 42.3552Z" fill="#004097"/>
<path d="M120.579 48.073H119.62V52.0259H120.579V48.073Z" fill="#004097"/>
<path d="M123.023 49.719H121.267V50.3822H123.023V49.719Z" fill="#004097"/>
<path d="M124.969 48.073H123.705V52.0258H124.969C126.716 52.0258 127.599 51.3602 127.599 50.0482C127.599 48.7362 126.713 48.0706 124.969 48.0706V48.073ZM126.601 50.0506C126.601 50.6872 126.09 51.3626 125.142 51.3626H124.667V48.7362H125.142C126.09 48.7362 126.601 49.4116 126.601 50.0482V50.0506Z" fill="#004097"/>
<path d="M130.35 48.0076C128.95 48.0076 128.114 48.7676 128.114 50.0409C128.114 51.3141 128.95 52.096 130.35 52.096C131.751 52.096 132.587 51.3093 132.587 50.0409C132.587 48.7725 131.729 48.0076 130.35 48.0076ZM131.589 50.0409C131.589 50.7138 131.265 51.4327 130.35 51.4327C129.436 51.4327 129.112 50.7138 129.112 50.0409C129.112 49.4091 129.436 48.6732 130.35 48.6732C131.265 48.6732 131.589 49.4115 131.589 50.0409Z" fill="#004097"/>
<path d="M116.973 49.7407V50.404H117.932V51.3795C117.767 51.4134 117.577 51.4303 117.364 51.4303C116.464 51.4303 115.86 50.8808 115.86 50.0602C115.86 49.2397 116.492 48.6684 117.468 48.6684C117.862 48.6684 118.304 48.7459 118.619 48.8741L118.72 48.9153V48.1746L118.698 48.1698C118.27 48.0584 117.848 48.0076 117.367 48.0076C115.799 48.0076 114.865 48.7967 114.865 50.1183C114.865 51.44 115.776 52.096 117.367 52.096C117.784 52.096 118.236 52.033 118.835 51.8927L118.854 51.8878V49.7407H116.976H116.973Z" fill="#004097"/>
<path d="M95.2473 49.6875L94.2045 48.0851L94.1961 48.073H93.0722L94.7412 50.4646V52.0283H95.703V50.4646L97.3357 48.073H96.3152L95.2473 49.6875Z" fill="#004097"/>
<path d="M98.6049 50.3145H100.372V49.6512H98.6049V48.7362H100.372V48.073H97.646V52.0283H100.372V51.3626H98.6049V50.3145Z" fill="#004097"/>
<path d="M103.123 48.0076C101.722 48.0076 100.883 48.7676 100.883 50.0409C100.883 51.3141 101.719 52.096 103.123 52.096C104.526 52.096 105.359 51.3093 105.359 50.0409C105.359 48.7725 104.504 48.0076 103.123 48.0076ZM103.123 51.4303C102.209 51.4303 101.884 50.7114 101.884 50.0385C101.884 49.4067 102.209 48.6708 103.123 48.6708C104.037 48.6708 104.361 49.4091 104.361 50.0385C104.361 50.7114 104.037 51.4303 103.123 51.4303Z" fill="#004097"/>
<path d="M108.818 50.939L107.14 48.0875L107.135 48.073H105.977V52.0283H106.897V49.1623L108.583 52.0138L108.591 52.0283H109.74V48.073H108.818V50.939Z" fill="#004097"/>
<path d="M91.0257 49.7407V50.404H91.9819V51.3795C91.8169 51.4134 91.6268 51.4303 91.4143 51.4303C90.5169 51.4303 89.9102 50.8808 89.9102 50.0602C89.9102 49.2397 90.5421 48.6684 91.5178 48.6684C91.912 48.6684 92.3537 48.7459 92.6696 48.8741L92.7703 48.9153V48.1746L92.7479 48.1698C92.3174 48.0584 91.8952 48.0076 91.4143 48.0076C89.8459 48.0076 88.9122 48.7967 88.9122 50.1183C88.9122 51.44 89.8264 52.096 91.4143 52.096C91.8337 52.096 92.2866 52.033 92.8821 51.8927L92.9017 51.8878V49.7407H91.0229H91.0257Z" fill="#004097"/>
<path d="M112.469 49.7407V50.404H113.425V51.3795C113.26 51.4134 113.07 51.4303 112.857 51.4303C111.957 51.4303 111.356 50.8808 111.356 50.0602C111.356 49.2397 111.985 48.6684 112.961 48.6684C113.355 48.6684 113.797 48.7459 114.113 48.8741L114.211 48.9153V48.1746L114.188 48.1698C113.758 48.0584 113.336 48.0076 112.855 48.0076C111.286 48.0076 110.352 48.7967 110.352 50.1183C110.352 51.44 111.264 52.096 112.855 52.096C113.271 52.096 113.727 52.033 114.322 51.8927L114.342 51.8878V49.7407H112.463H112.469Z" fill="#004097"/>
<path d="M72.5512 22.7827V14.9954H75.7745C77.7433 14.9954 79.1859 15.8642 79.1859 18.3258V19.4548C79.1859 21.8918 77.7433 22.7852 75.7745 22.7852H72.5512V22.7827ZM77.1025 19.4523V18.3233C77.1025 17.2729 76.8516 16.5514 75.7717 16.5514H74.6319V21.2243H75.7717C76.8489 21.2243 77.1025 20.5003 77.1025 19.4523Z" fill="#29111A"/>
<path d="M83.7645 18.8754C83.6527 18.7061 83.4754 18.4705 83.1127 18.4705C82.5728 18.4705 82.2592 18.8091 82.2592 19.5651V22.7826H80.3776V17.1402H82.2074V17.5673C82.3955 17.3538 82.81 17.0273 83.5245 17.0273C84.239 17.0273 84.8034 17.3439 85.1661 17.9747L83.7617 18.8779L83.7645 18.8754Z" fill="#29111A"/>
<path d="M90.5273 21.9236C90.0882 22.6132 89.3356 22.8955 88.1957 22.8955C86.2132 22.8955 85.3624 21.7444 85.3624 20.3455V19.5552C85.3624 17.8053 86.3659 17.0273 87.9966 17.0273C89.8155 17.0273 90.6309 17.9649 90.6309 19.7246V20.3921H87.244C87.2685 21.0352 87.4458 21.4769 88.2093 21.4769C88.7984 21.4769 88.9238 21.3198 89.1501 21.0597L90.53 21.9285L90.5273 21.9236ZM87.2549 19.2607H88.7466C88.7084 18.6398 88.4466 18.4484 88.0075 18.4484C87.5194 18.4484 87.304 18.7527 87.2549 19.2607Z" fill="#29111A"/>
<path d="M93.6878 19.3393H94.8032V19.1699C94.8032 18.6177 94.6914 18.4018 93.8133 18.4018C93.2733 18.4018 93.0225 18.4926 92.7989 18.7846L91.4817 17.96C91.9699 17.2605 92.698 17.0225 94.0287 17.0225C95.6594 17.0225 96.6384 17.4397 96.6384 19.1773V22.7777H94.8086V22.3138C94.5959 22.6182 94.2578 22.8906 93.5679 22.8906C92.338 22.8906 91.3863 22.2795 91.3863 21.0965C91.3863 19.9136 92.3898 19.3368 93.6933 19.3368L93.6878 19.3393ZM94.8032 20.5345H93.9496C93.4724 20.5345 93.2106 20.6818 93.2106 21.0524C93.2106 21.3788 93.4997 21.5604 93.9769 21.5604C94.6041 21.5604 94.8059 21.2217 94.8059 20.7014V20.5321L94.8032 20.5345Z" fill="#29111A"/>
<path d="M97.8301 17.1378H99.6599V17.5648C99.8726 17.317 100.325 17.0249 100.977 17.0249C101.691 17.0249 102.305 17.2605 102.695 17.7366C103.085 17.3538 103.66 17.0249 104.465 17.0249C105.845 17.0249 106.635 17.7685 106.635 19.2362V22.7801H104.754V19.5626C104.754 18.8067 104.541 18.468 103.952 18.468C103.502 18.468 103.175 18.7159 103.175 19.4497V22.7801H101.293V19.5626C101.293 18.7282 100.993 18.468 100.516 18.468C100.039 18.468 99.7144 18.738 99.7144 19.5503V22.7777H97.8328V17.1353L97.8301 17.1378Z" fill="#29111A"/>
<path d="M116.008 21.9236C115.544 22.601 114.854 22.8955 113.676 22.8955C111.844 22.8955 110.843 21.8573 110.843 20.3455V19.5552C110.843 17.8962 111.847 17.0273 113.802 17.0273C114.792 17.0273 115.583 17.3538 116.008 17.9968L114.604 18.8779C114.429 18.6521 114.214 18.4484 113.75 18.4484C112.921 18.4484 112.722 18.8656 112.722 19.7V20.1958C112.722 20.9419 112.823 21.472 113.75 21.472C114.175 21.472 114.415 21.3468 114.614 21.0548L116.005 21.9236H116.008Z" fill="#29111A"/>
<path d="M118.694 19.3393H119.809V19.1699C119.809 18.6177 119.698 18.4018 118.82 18.4018C118.28 18.4018 118.029 18.4926 117.802 18.7846L116.485 17.96C116.973 17.2605 117.701 17.0225 119.029 17.0225C120.66 17.0225 121.639 17.4397 121.639 19.1773V22.7777H119.807V22.3138C119.594 22.6182 119.256 22.8906 118.566 22.8906C117.336 22.8906 116.384 22.2795 116.384 21.0965C116.384 19.9136 117.388 19.3368 118.691 19.3368L118.694 19.3393ZM119.809 20.5345H118.956C118.479 20.5345 118.217 20.6818 118.217 21.0524C118.217 21.3788 118.506 21.5604 118.983 21.5604C119.61 21.5604 119.812 21.2217 119.812 20.7014V20.5321L119.809 20.5345Z" fill="#29111A"/>
<path d="M126.22 18.8754C126.109 18.7061 125.931 18.4705 125.569 18.4705C125.029 18.4705 124.715 18.8091 124.715 19.5651V22.7826H122.834V17.1402H124.666V17.5673C124.854 17.3538 125.269 17.0273 125.983 17.0273C126.698 17.0273 127.262 17.3439 127.625 17.9747L126.22 18.8779V18.8754Z" fill="#29111A"/>
<path d="M131.451 14.9929H133.332V22.7803H131.451V22.5324C131.151 22.7582 130.761 22.8932 130.273 22.8932C128.667 22.8932 127.816 21.855 127.816 20.3432V19.5529C127.816 17.8939 128.819 17.025 130.273 17.025C130.712 17.025 131.113 17.1159 131.451 17.3294V14.9929ZM131.451 20.196V19.575C131.451 18.8191 131.214 18.4461 130.573 18.4461C129.896 18.4461 129.695 18.8633 129.695 19.6977V20.1935C129.695 20.9396 129.796 21.4697 130.573 21.4697C131.35 21.4697 131.451 20.9396 131.451 20.1935V20.196Z" fill="#29111A"/>
<path fill-rule="evenodd" clip-rule="evenodd" d="M62.2021 0.0466579C62.5676 0.103106 64.7109 0.719126 64.651 2.25058C64.5882 3.77959 64.3674 4.12809 60.9777 6.10623C57.5881 8.08436 53.2741 10.7031 51.1852 13.8175C49.0964 16.932 47.4602 21.5484 49.35 22.6308C51.2398 23.7131 53.5059 23.3032 56.0829 21.5288C58.6598 19.7544 62.8157 16.0214 62.8157 16.0214C62.8157 16.0214 59.3198 17.143 58.5317 16.5712C57.7436 15.9994 57.9045 14.8704 59.1425 14.3673C60.3805 13.8642 65.5918 12.8726 66.4862 13.2653C67.3806 13.658 68.1933 14.0752 67.7106 16.5712C67.2279 19.0672 64.1765 26.0569 63.4266 27.0362C62.6766 28.0154 62.6466 28.4326 62.2021 28.1381C61.7577 27.8436 62.4176 24.1303 62.813 22.6308C63.2084 21.1312 64.0374 17.6732 64.0374 17.6732C64.0374 17.6732 63.4865 18.9666 61.5886 20.4268C59.6906 21.8871 55.8374 24.8519 52.4096 25.3845C48.9819 25.917 44.2097 24.1622 44.4524 17.6707C44.6978 11.1816 47.9947 7.98374 51.1852 5.00427C54.3731 2.02479 59.4861 -0.365658 62.2021 0.0466579Z" fill="#29111A"/>
</svg>
