<svg width="120" height="23" viewBox="0 0 120 23" fill="none" xmlns="http://www.w3.org/2000/svg">
<path d="M46.1567 0H24.6185V6.32651H46.1567V0Z" fill="#02983B"/>
<path d="M43.8715 13.9732L24.6154 22.6068V15.886L46.1536 6.32648V10.5311C46.1536 11.9493 45.4491 13.2652 43.8715 13.971V13.9732Z" fill="#004097"/>
<path d="M71.2622 0H49.2384V6.32651H71.2622V0Z" fill="#02983B"/>
<path d="M21.5357 0H0V6.32651H21.5357V0Z" fill="#02983B"/>
<path d="M19.2535 13.9732L0 22.6068V15.886L21.5357 6.32648V10.5311C21.5357 11.9493 20.8286 13.2652 19.2535 13.971V13.9732Z" fill="#004097"/>
<path d="M49.2384 11.8578V15.1038C49.2384 16.8053 50.8311 18.1865 52.7987 18.1865H71.2622V11.8578H49.2384Z" fill="#004097"/>
<path d="M105.152 0H103.059V11.1956H105.152V0Z" fill="#004097"/>
<path d="M88.7419 1.50102H85.9893C86.0044 1.36595 86.0119 1.2287 86.0119 1.08492V0.442246H78.9013V1.72977H83.8707C83.7398 2.38333 82.8139 4.2961 78.4987 5.40063L79.0623 6.42019C79.0623 6.42019 84.0594 5.59452 85.5766 2.78854H88.7394V3.98239H85.0759V5.26991H88.7394V7.08029C87.9317 6.78836 86.9152 6.61843 85.7125 6.61843C82.517 6.61843 80.5921 7.82317 80.5921 9.31112C80.5921 10.7991 82.517 12.0038 85.7125 12.0038C88.908 12.0038 90.8303 10.7991 90.8329 9.3133V0H88.7369V1.50102H88.7419ZM85.715 10.7163C83.8279 10.7163 82.6906 10.0889 82.6906 9.3133C82.6906 8.53774 83.8279 7.91032 85.715 7.91032C87.6021 7.91032 88.7419 8.53774 88.7419 9.3133C88.7419 10.0889 87.6021 10.7163 85.715 10.7163Z" fill="#004097"/>
<path d="M114.736 9.29583V6.58135H118.81V5.29383H110.602V1.72972H118.81V0.4422H108.501V5.55308C108.501 6.12168 109.035 6.58135 109.691 6.58135H112.643V9.29583H107.379V10.5834H120V9.29583H114.739H114.736Z" fill="#004097"/>
<path d="M93.7465 9.31979C100.054 7.24146 100.824 2.33318 100.827 0.827803V0.4422H93.6307V1.72972H98.5523C98.2906 3.52921 97.1559 6.49421 93.0797 8.18041L93.7465 9.31979Z" fill="#004097"/>
<path d="M108.521 14.4659H107.658V18.0235H108.521V14.4659Z" fill="#004097"/>
<path d="M110.72 15.9471H109.14V16.544H110.72V15.9471Z" fill="#004097"/>
<path d="M112.472 14.4657H111.334V18.0233H112.472C114.044 18.0233 114.839 17.4242 114.839 16.2434C114.839 15.0626 114.042 14.4635 112.472 14.4635V14.4657ZM113.941 16.2456C113.941 16.8185 113.481 17.4263 112.628 17.4263H112.2V15.0626H112.628C113.481 15.0626 113.941 15.6704 113.941 16.2434V16.2456Z" fill="#004097"/>
<path d="M117.315 14.4067C116.055 14.4067 115.302 15.0908 115.302 16.2367C115.302 17.3826 116.055 18.0863 117.315 18.0863C118.576 18.0863 119.328 17.3783 119.328 16.2367C119.328 15.0952 118.556 14.4067 117.315 14.4067ZM118.43 16.2367C118.43 16.8424 118.138 17.4894 117.315 17.4894C116.493 17.4894 116.201 16.8424 116.201 16.2367C116.201 15.6681 116.493 15.0058 117.315 15.0058C118.138 15.0058 118.43 15.6703 118.43 16.2367Z" fill="#004097"/>
<path d="M105.275 15.9666V16.5635H106.139V17.4415C105.99 17.472 105.819 17.4872 105.628 17.4872C104.818 17.4872 104.274 16.9927 104.274 16.2541C104.274 15.5156 104.843 15.0015 105.721 15.0015C106.076 15.0015 106.473 15.0712 106.757 15.1867L106.848 15.2237V14.5571L106.828 14.5527C106.443 14.4525 106.063 14.4067 105.63 14.4067C104.219 14.4067 103.378 15.1169 103.378 16.3064C103.378 17.4959 104.199 18.0863 105.63 18.0863C106.005 18.0863 106.413 18.0297 106.951 17.9033L106.969 17.899V15.9666H105.278H105.275Z" fill="#004097"/>
<path d="M85.7225 15.919L84.784 14.4768L84.7764 14.4659H83.765L85.2671 16.6183V18.0256H86.1326V16.6183L87.6021 14.4659H86.6837L85.7225 15.919Z" fill="#004097"/>
<path d="M88.7444 16.4832H90.3346V15.8863H88.7444V15.0628H90.3346V14.4659H87.8813V18.0256H90.3346V17.4265H88.7444V16.4832Z" fill="#004097"/>
<path d="M92.8105 14.4067C91.5499 14.4067 90.7951 15.0908 90.7951 16.2367C90.7951 17.3826 91.5474 18.0863 92.8105 18.0863C94.0736 18.0863 94.8234 17.3783 94.8234 16.2367C94.8234 15.0952 94.0535 14.4067 92.8105 14.4067ZM92.8105 17.4872C91.9878 17.4872 91.6959 16.8402 91.6959 16.2345C91.6959 15.6659 91.9878 15.0037 92.8105 15.0037C93.6333 15.0037 93.9252 15.6681 93.9252 16.2345C93.9252 16.8402 93.6333 17.4872 92.8105 17.4872Z" fill="#004097"/>
<path d="M97.9359 17.0453L96.4262 14.479L96.4212 14.4659H95.3795V18.0256H96.2073V15.4462L97.7246 18.0126L97.7321 18.0256H98.7662V14.4659H97.9359V17.0453Z" fill="#004097"/>
<path d="M81.9231 15.9665V16.5634H82.7837V17.4414C82.6352 17.4719 82.4641 17.4871 82.2729 17.4871C81.4652 17.4871 80.9192 16.9926 80.9192 16.2541C80.9192 15.5156 81.4878 15.0014 82.366 15.0014C82.7208 15.0014 83.1183 15.0711 83.4026 15.1866L83.4932 15.2236V14.557L83.4731 14.5526C83.0856 14.4524 82.7057 14.4067 82.2729 14.4067C80.8613 14.4067 80.0209 15.1169 80.0209 16.3064C80.0209 17.4959 80.8437 18.0862 82.2729 18.0862C82.6503 18.0862 83.0579 18.0296 83.5939 17.9033L83.6115 17.8989V15.9665H81.9206H81.9231Z" fill="#004097"/>
<path d="M101.222 15.9666V16.5635H102.083V17.4415C101.934 17.472 101.763 17.4872 101.572 17.4872C100.762 17.4872 100.221 16.9927 100.221 16.2541C100.221 15.5156 100.787 15.0015 101.665 15.0015C102.02 15.0015 102.417 15.0712 102.701 15.1867L102.79 15.2237V14.5571L102.769 14.5527C102.382 14.4525 102.002 14.4067 101.569 14.4067C100.158 14.4067 99.3173 15.1169 99.3173 16.3064C99.3173 17.4959 100.138 18.0863 101.569 18.0863C101.944 18.0863 102.354 18.0297 102.89 17.9033L102.908 17.899V15.9666H101.217H101.222Z" fill="#004097"/>
</svg>
