<?xml version="1.0" standalone="no"?>
<!DOCTYPE svg PUBLIC "-//W3C//DTD SVG 1.1//EN" "http://www.w3.org/Graphics/SVG/1.1/DTD/svg11.dtd" >
<svg xmlns="http://www.w3.org/2000/svg">
<metadata>Generated by IcoMoon</metadata>
<defs>
<font id="icomoon" horiz-adv-x="1024">
<font-face units-per-em="1024" ascent="960" descent="-64" />
<missing-glyph horiz-adv-x="1024" />
<glyph unicode="&#x20;" horiz-adv-x="512" d="" />
<glyph unicode="&#xe900;" glyph-name="arrow-down" d="M225.83 584.837c16.663 16.662 43.677 16.662 60.34 0l225.83-225.831 225.83 225.831c16.661 16.662 43.678 16.662 60.339 0s16.661-43.677 0-60.34l-256-256c-16.661-16.661-43.678-16.661-60.339 0l-256 256c-16.662 16.663-16.662 43.677 0 60.34z" />
<glyph unicode="&#xe901;" glyph-name="arrow-first" d="M478.703 670.17c16.661-16.663 16.661-43.677 0-60.34l-162.363-162.363 162.363-162.364c16.661-16.661 16.661-43.678 0-60.339s-43.678-16.661-60.34 0l-192.533 192.533c-16.662 16.661-16.662 43.678 0 60.339l192.533 192.534c16.662 16.662 43.678 16.662 60.34 0zM748.25 670.17c16.661-16.663 16.661-43.677 0-60.34l-162.364-162.363 162.364-162.364c16.661-16.661 16.661-43.678 0-60.339s-43.678-16.661-60.339 0l-192.533 192.533c-16.661 16.661-16.661 43.678 0 60.339l192.533 192.534c16.661 16.662 43.678 16.662 60.339 0z" />
<glyph unicode="&#xe902;" glyph-name="arrow-last" d="M225.83 670.17c16.663 16.662 43.677 16.662 60.34 0l213.333-213.334c16.661-16.661 16.661-43.678 0-60.339l-213.333-213.333c-16.663-16.661-43.677-16.661-60.34 0s-16.662 43.678 0 60.339l183.164 183.164-183.164 183.163c-16.662 16.663-16.662 43.677 0 60.34zM524.497 670.17c16.661 16.662 43.678 16.662 60.339 0l213.333-213.334c16.661-16.661 16.661-43.678 0-60.339l-213.333-213.333c-16.661-16.661-43.678-16.661-60.339 0s-16.661 43.678 0 60.339l183.164 183.164-183.164 183.163c-16.661 16.663-16.661 43.677 0 60.34z" />
<glyph unicode="&#xe903;" glyph-name="arrow-next" d="M396.376 652.373c-16.64-16.64-16.64-43.52 0-60.16l165.548-165.546-165.548-165.547c-16.64-16.64-16.64-43.52 0-60.16s43.522-16.64 60.162 0l195.84 195.84c16.64 16.64 16.64 43.52 0 60.16l-195.84 195.84c-16.213 16.213-43.522 16.213-60.162-0.427z" />
<glyph unicode="&#xe904;" glyph-name="arrow-prev" d="M627.627 652.373c-16.64 16.64-43.52 16.64-60.16 0l-195.841-195.84c-16.64-16.64-16.64-43.52 0-60.16l195.841-195.84c16.64-16.64 43.52-16.64 60.16 0s16.64 43.52 0 60.16l-165.547 165.973 165.547 165.546c16.64 16.64 16.213 43.947 0 60.16v0z" />
<glyph unicode="&#xe905;" glyph-name="arrow-up" d="M225.83 268.497c16.663-16.661 43.677-16.661 60.34 0l225.83 225.83 225.83-225.83c16.661-16.661 43.678-16.661 60.339 0s16.661 43.678 0 60.339l-256 256c-16.661 16.662-43.678 16.662-60.339 0l-256-256c-16.662-16.661-16.662-43.678 0-60.339z" />
<glyph unicode="&#xe906;" glyph-name="bar" d="M512 85.334v682.667h42.667v-682.667h-42.667z" />
<glyph unicode="&#xe907;" glyph-name="bullet_dot" d="M554.667 426.667c0-23.564-19.103-42.667-42.667-42.667s-42.667 19.103-42.667 42.667c0 23.564 19.103 42.667 42.667 42.667s42.667-19.103 42.667-42.667z" />
<glyph unicode="&#xe908;" glyph-name="bullet-arrow" d="M426.667 213.334l213.333 213.333-213.333 213.333v-426.667z" />
<glyph unicode="&#xe909;" glyph-name="calendar" d="M810.667 810.667h-42.667v85.333h-85.333v-85.333h-341.333v85.333h-85.333v-85.333h-42.667c-46.933 0-85.333-38.4-85.333-85.333v-597.333c0-46.933 38.4-85.333 85.333-85.333h597.333c46.933 0 85.333 38.4 85.333 85.333v597.333c0 46.933-38.4 85.333-85.333 85.333zM810.667 128h-597.333v426.667h597.333v-426.667zM213.333 640v85.333h597.333v-85.333h-597.333zM450.56 193.707l253.013 253.013-45.227 45.227-207.787-207.787-90.027 90.027-45.227-45.227 135.253-135.253z" />
<glyph unicode="&#xe90a;" glyph-name="check" d="M383.995 248.747l-148.053 148.053c-16.64 16.64-43.52 16.64-60.16 0s-16.64-43.52 0-60.16l178.347-178.347c16.64-16.64 43.52-16.64 60.16 0l451.414 451.413c16.64 16.64 16.64 43.52 0 60.16s-43.52 16.64-60.16 0l-421.547-421.12z" />
<glyph unicode="&#xe90b;" glyph-name="circle-minus" d="M298.667 426.667c0-23.467 19.2-42.667 42.667-42.667h341.333c23.467 0 42.667 19.2 42.667 42.667s-19.2 42.667-42.667 42.667h-341.333c-23.467 0-42.667-19.2-42.667-42.667zM512 853.334c-235.52 0-426.667-191.147-426.667-426.667s191.147-426.667 426.667-426.667c235.52 0 426.667 191.147 426.667 426.667s-191.147 426.667-426.667 426.667zM512 85.334c-188.16 0-341.333 153.173-341.333 341.333s153.173 341.333 341.333 341.333c188.16 0 341.333-153.173 341.333-341.333s-153.173-341.333-341.333-341.333z" />
<glyph unicode="&#xe90c;" glyph-name="circle-plus" d="M512 640c-23.467 0-42.667-19.2-42.667-42.667v-128h-128c-23.467 0-42.667-19.2-42.667-42.667s19.2-42.667 42.667-42.667h128v-128c0-23.467 19.2-42.667 42.667-42.667s42.667 19.2 42.667 42.667v128h128c23.467 0 42.667 19.2 42.667 42.667s-19.2 42.667-42.667 42.667h-128v128c0 23.467-19.2 42.667-42.667 42.667zM512 853.334c-235.52 0-426.667-191.147-426.667-426.667s191.147-426.667 426.667-426.667c235.52 0 426.667 191.147 426.667 426.667s-191.147 426.667-426.667 426.667zM512 85.334c-188.16 0-341.333 153.173-341.333 341.333s153.173 341.333 341.333 341.333c188.16 0 341.333-153.173 341.333-341.333s-153.173-341.333-341.333-341.333z" />
<glyph unicode="&#xe90d;" glyph-name="close" d="M268.497 670.17c16.663 16.662 43.677 16.662 60.34 0l183.163-183.164 183.164 183.164c16.661 16.662 43.678 16.662 60.339 0s16.661-43.677 0-60.34l-183.164-183.163 183.164-183.164c16.661-16.661 16.661-43.678 0-60.339s-43.678-16.661-60.339 0l-183.164 183.164-183.163-183.164c-16.663-16.661-43.677-16.661-60.34 0s-16.662 43.678 0 60.339l183.164 183.164-183.164 183.163c-16.662 16.663-16.662 43.677 0 60.34z" />
<glyph unicode="&#xe90e;" glyph-name="filedown" d="M810.667 426.667v-298.667h-597.333v298.667h-85.333v-298.667c0-46.933 38.4-85.333 85.333-85.333h597.333c46.933 0 85.333 38.4 85.333 85.333v298.667h-85.333zM554.667 398.080l110.507 110.080 60.16-60.16-213.333-213.333-213.333 213.333 60.16 60.16 110.507-110.080v412.587h85.333v-412.587z" />
<glyph unicode="&#xe90f;" glyph-name="help" d="M469.333 170.667h85.333v85.333h-85.333v-85.333zM512 853.334c-235.52 0-426.667-191.147-426.667-426.667s191.147-426.667 426.667-426.667c235.52 0 426.667 191.147 426.667 426.667s-191.147 426.667-426.667 426.667zM512 85.334c-188.16 0-341.333 153.173-341.333 341.333s153.173 341.333 341.333 341.333c188.16 0 341.333-153.173 341.333-341.333s-153.173-341.333-341.333-341.333zM512 682.667c-94.293 0-170.667-76.373-170.667-170.667h85.333c0 46.933 38.4 85.333 85.333 85.333s85.333-38.4 85.333-85.333c0-85.333-128-74.667-128-213.333h85.333c0 96 128 106.667 128 213.333 0 94.293-76.373 170.667-170.667 170.667z" />
<glyph unicode="&#xe910;" glyph-name="home" d="M512 810.667l-426.667-384h128v-341.333h597.333v341.333h128l-426.667 384zM298.667 170.667v333.227l213.333 192 213.333-192v-333.227h-426.667zM597.333 341.334c0-46.933-38.4-85.333-85.333-85.333s-85.333 38.4-85.333 85.333c0 46.933 85.333 170.667 85.333 170.667s85.333-123.733 85.333-170.667z" />
<glyph unicode="&#xe911;" glyph-name="information" d="M469.333 640h85.333v-85.333h-85.333v85.333zM512 213.334c23.467 0 42.667 19.2 42.667 42.667v170.667c0 23.467-19.2 42.667-42.667 42.667s-42.667-19.2-42.667-42.667v-170.667c0-23.467 19.2-42.667 42.667-42.667zM512 853.334c-235.52 0-426.667-191.147-426.667-426.667s191.147-426.667 426.667-426.667c235.52 0 426.667 191.147 426.667 426.667s-191.147 426.667-426.667 426.667zM512 85.334c-188.16 0-341.333 153.173-341.333 341.333s153.173 341.333 341.333 341.333c188.16 0 341.333-153.173 341.333-341.333s-153.173-341.333-341.333-341.333z" />
<glyph unicode="&#xe912;" glyph-name="lock" d="M768 597.334h-42.667v85.333c0 117.76-95.573 213.333-213.333 213.333s-213.333-95.573-213.333-213.333v-85.333h-42.667c-46.933 0-85.333-38.4-85.333-85.333v-426.667c0-46.933 38.4-85.333 85.333-85.333h512c46.933 0 85.333 38.4 85.333 85.333v426.667c0 46.933-38.4 85.333-85.333 85.333zM384 682.667c0 70.827 57.173 128 128 128s128-57.173 128-128v-85.333h-256v85.333zM768 85.334h-512v426.667h512v-426.667zM512 213.334c46.933 0 85.333 38.4 85.333 85.333s-38.4 85.333-85.333 85.333c-46.933 0-85.333-38.4-85.333-85.333s38.4-85.333 85.333-85.333z" />
<glyph unicode="&#xe913;" glyph-name="logout" d="M469.333 640l-59.733-59.733 110.933-110.933h-435.2v-85.333h435.2l-110.933-110.933 59.733-59.733 213.333 213.333-213.333 213.333zM853.333 128h-341.333v-85.333h341.333c46.933 0 85.333 38.4 85.333 85.333v597.333c0 46.933-38.4 85.333-85.333 85.333h-341.333v-85.333h341.333v-597.333z" />
<glyph unicode="&#xe914;" glyph-name="menu" d="M597.333 224h-426.667v-81.067h426.667v81.067zM853.333 548.267h-682.667v-81.066h682.667v81.066zM170.667 305.067h682.667v81.067h-682.667v-81.067zM170.667 710.4v-81.067h682.667v81.067h-682.667z" />
<glyph unicode="&#xe915;" glyph-name="menu-depth" d="M298.667 213.334v426.667h42.667v-426.667h-42.667zM298.667 256h426.667v-42.667h-426.667v42.667z" />
<glyph unicode="&#xe916;" glyph-name="person" d="M512 682.667c46.933 0 85.333-38.4 85.333-85.333s-38.4-85.333-85.333-85.333c-46.933 0-85.333 38.4-85.333 85.333s38.4 85.333 85.333 85.333zM512 298.667c115.2 0 247.467-55.040 256-85.333v-42.667h-512v42.24c8.533 30.72 140.8 85.76 256 85.76v0zM512 768c-94.293 0-170.667-76.373-170.667-170.667s76.373-170.667 170.667-170.667c94.293 0 170.667 76.373 170.667 170.667s-76.373 170.667-170.667 170.667v0zM512 384c-113.92 0-341.333-57.173-341.333-170.667v-128h682.667v128c0 113.493-227.413 170.667-341.333 170.667v0z" />
<glyph unicode="&#xe917;" glyph-name="radio" d="M512 853.334c-235.52 0-426.667-191.147-426.667-426.667s191.147-426.667 426.667-426.667c235.52 0 426.667 191.147 426.667 426.667s-191.147 426.667-426.667 426.667zM512 85.334c-188.587 0-341.333 152.747-341.333 341.333s152.747 341.333 341.333 341.333c188.587 0 341.333-152.747 341.333-341.333s-152.747-341.333-341.333-341.333zM512 213.334c117.82 0 213.333 95.514 213.333 213.333s-95.514 213.333-213.333 213.333c-117.821 0-213.333-95.513-213.333-213.333s95.513-213.333 213.333-213.333z" />
<glyph unicode="&#xe918;" glyph-name="reload" d="M512 768v76.373c0 19.2-23.040 28.587-36.267 14.933l-119.467-119.040c-8.533-8.533-8.533-21.76 0-30.293l119.040-119.040c13.653-13.227 36.693-3.84 36.693 15.36v76.373c141.227 0 256-114.773 256-256 0-33.707-6.4-66.56-18.773-96-6.4-15.36-1.707-32.853 9.813-44.373 21.76-21.76 58.453-14.080 69.973 14.507 15.787 38.827 24.32 81.493 24.32 125.867 0 188.587-152.747 341.333-341.333 341.333zM512 170.667c-141.227 0-256 114.773-256 256 0 33.707 6.4 66.56 18.773 96 6.4 15.36 1.707 32.853-9.813 44.373-21.76 21.76-58.453 14.080-69.973-14.507-15.787-38.827-24.32-81.493-24.32-125.867 0-188.587 152.747-341.333 341.333-341.333v-76.373c0-19.2 23.040-28.587 36.267-14.933l119.040 119.040c8.533 8.533 8.533 21.76 0 30.293l-119.040 119.040c-13.227 13.227-36.267 3.84-36.267-15.36v-76.373z" />
<glyph unicode="&#xe919;" glyph-name="required" d="M623.275 691.883l-83.968-56.661 7.509 93.525h-69.632l7.509-93.525-83.966 56.661-34.133-60.075 90.11-44.373-90.11-43.691 34.133-60.074 83.966 55.978-7.509-93.525h69.632l-7.509 93.525 83.968-55.978 34.816 60.074-90.795 43.691 90.795 44.373-34.816 60.075z" />
<glyph unicode="&#xe91a;" glyph-name="search" d="M661.329 341.334h-33.707l-11.947 11.52c51.2 59.733 77.653 141.227 63.147 227.84-20.053 118.613-119.040 213.333-238.507 227.84-180.48 22.187-332.374-129.707-310.187-310.187 14.507-119.467 109.227-218.453 227.84-238.507 86.614-14.507 168.107 11.947 227.84 63.147l11.52-11.947v-33.707l181.333-181.333c17.493-17.493 46.080-17.493 63.573 0s17.493 46.080 0 63.573l-180.907 181.76zM405.329 341.334c-106.24 0-192 85.76-192 192s85.76 192 192 192c106.24 0 192-85.76 192-192s-85.76-192-192-192z" />
<glyph unicode="&#xe91b;" glyph-name="smile" d="M661.333 469.334c35.345 0 64 28.655 64 64s-28.655 64-64 64-64-28.654-64-64c0-35.345 28.655-64 64-64zM362.667 469.334c35.346 0 64 28.655 64 64s-28.654 64-64 64-64-28.654-64-64c0-35.345 28.654-64 64-64zM512 256c-63.147 0-117.333 34.56-147.2 85.333h-71.253c34.133-87.467 119.040-149.333 218.453-149.333s184.32 61.867 218.453 149.333h-71.253c-29.44-50.773-84.053-85.333-147.2-85.333zM511.573 853.334c-235.52 0-426.24-191.147-426.24-426.667s190.72-426.667 426.24-426.667c235.947 0 427.093 191.147 427.093 426.667s-191.147 426.667-427.093 426.667zM512 85.334c-188.587 0-341.333 152.747-341.333 341.333s152.747 341.333 341.333 341.333c188.587 0 341.333-152.747 341.333-341.333s-152.747-341.333-341.333-341.333z" />
<glyph unicode="&#xe91c;" glyph-name="circle-minus2" d="M512 853.334c-235.52 0-426.667-191.147-426.667-426.667s191.147-426.667 426.667-426.667c235.52 0 426.667 191.147 426.667 426.667s-191.147 426.667-426.667 426.667zM725.333 384h-426.667v85.333h426.667v-85.333z" />
<glyph unicode="&#xe91d;" glyph-name="circle-plus2" d="M512 853.334c-235.52 0-426.667-191.147-426.667-426.667s191.147-426.667 426.667-426.667c235.52 0 426.667 191.147 426.667 426.667s-191.147 426.667-426.667 426.667zM725.333 384h-170.667v-170.667h-85.333v170.667h-170.667v85.333h170.667v170.667h85.333v-170.667h170.667v-85.333z" />
<glyph unicode="&#xe91e;" glyph-name="dot-depth" d="M256 597.334c46.933 0 85.333 38.4 85.333 85.333s-38.4 85.333-85.333 85.333c-46.933 0-85.333-38.4-85.333-85.333s38.4-85.333 85.333-85.333zM256 512c-46.933 0-85.333-38.4-85.333-85.333s38.4-85.333 85.333-85.333c46.933 0 85.333 38.4 85.333 85.333s-38.4 85.333-85.333 85.333zM256 256c-46.933 0-85.333-38.4-85.333-85.333s38.4-85.333 85.333-85.333c46.933 0 85.333 38.4 85.333 85.333s-38.4 85.333-85.333 85.333zM256 256c-46.933 0-85.333-38.4-85.333-85.333s38.4-85.333 85.333-85.333c46.933 0 85.333 38.4 85.333 85.333s-38.4 85.333-85.333 85.333zM768 256c-46.933 0-85.333-38.4-85.333-85.333s38.4-85.333 85.333-85.333c46.933 0 85.333 38.4 85.333 85.333s-38.4 85.333-85.333 85.333zM512 256c-46.933 0-85.333-38.4-85.333-85.333s38.4-85.333 85.333-85.333c46.933 0 85.333 38.4 85.333 85.333s-38.4 85.333-85.333 85.333z" />
<glyph unicode="&#xe91f;" glyph-name="dot-height" d="M512 597.334c46.933 0 85.333 38.4 85.333 85.333s-38.4 85.333-85.333 85.333c-46.933 0-85.333-38.4-85.333-85.333s38.4-85.333 85.333-85.333zM512 512c-46.933 0-85.333-38.4-85.333-85.333s38.4-85.333 85.333-85.333c46.933 0 85.333 38.4 85.333 85.333s-38.4 85.333-85.333 85.333zM512 256c-46.933 0-85.333-38.4-85.333-85.333s38.4-85.333 85.333-85.333c46.933 0 85.333 38.4 85.333 85.333s-38.4 85.333-85.333 85.333z" />
<glyph unicode="&#xe920;" glyph-name="setting" d="M829.018 384.854c1.707 13.653 2.987 27.307 2.987 41.813s-1.28 28.16-2.987 41.813l90.027 70.4c8.107 6.4 10.24 17.92 5.12 27.307l-85.333 147.627c-3.84 6.827-11.093 10.667-18.773 10.667-2.56 0-5.12-0.427-7.253-1.28l-106.24-42.667c-22.187 17.067-46.080 31.147-72.107 41.813l-16.213 113.067c-1.28 10.24-10.24 17.92-20.907 17.92h-170.667c-10.668 0-19.628-7.68-20.908-17.92l-16.213-113.067c-26.027-10.667-49.92-25.173-72.107-41.813l-106.24 42.667c-2.56 0.853-5.12 1.28-7.68 1.28-7.253 0-14.507-3.84-18.347-10.667l-85.333-147.627c-5.547-9.387-2.987-20.907 5.12-27.307l90.027-70.4c-1.707-13.653-2.987-27.733-2.987-41.813s1.28-28.16 2.987-41.813l-90.027-70.4c-8.107-6.4-10.24-17.92-5.12-27.307l85.333-147.627c3.84-6.827 11.093-10.667 18.773-10.667 2.56 0 5.12 0.427 7.253 1.28l106.24 42.667c22.187-17.067 46.080-31.147 72.107-41.813l16.213-113.067c1.28-10.24 10.24-17.92 20.908-17.92h170.667c10.667 0 19.627 7.68 20.907 17.92l16.213 113.067c26.027 10.667 49.92 25.173 72.107 41.813l106.24-42.667c2.56-0.853 5.12-1.28 7.68-1.28 7.253 0 14.507 3.84 18.347 10.667l85.333 147.627c5.12 9.387 2.987 20.907-5.12 27.307l-90.027 70.4zM744.538 457.814c1.707-13.227 2.133-22.187 2.133-31.147s-0.853-18.347-2.133-31.147l-5.973-48.213 37.973-29.867 46.080-35.84-29.867-51.627-54.187 21.76-44.373 17.92-38.4-29.013c-18.347-13.653-35.84-23.893-53.333-31.147l-45.227-18.347-6.827-48.213-8.533-57.6h-59.733l-8.107 57.6-6.827 48.213-45.228 18.347c-18.347 7.68-35.413 17.493-52.48 30.293l-38.827 29.867-45.227-18.347-54.187-21.76-29.867 51.627 46.080 35.84 37.973 29.867-5.973 48.213c-1.28 13.227-2.133 23.040-2.133 31.573s0.853 18.347 2.133 31.147l5.973 48.213-37.973 29.867-46.080 35.84 29.867 51.627 54.187-21.76 44.373-17.92 38.4 29.013c18.347 13.653 35.84 23.893 53.333 31.147l45.228 18.347 6.827 48.213 8.533 57.6h59.307l8.107-57.6 6.827-48.213 45.227-18.347c18.347-7.68 35.413-17.493 52.48-30.293l38.827-29.867 45.227 18.347 54.187 21.76 29.867-51.627-45.653-36.267-37.973-29.867 5.973-48.213zM512.004 597.334c-94.294 0-170.668-76.373-170.668-170.667s76.373-170.667 170.668-170.667c94.293 0 170.667 76.373 170.667 170.667s-76.373 170.667-170.667 170.667zM512.004 341.334c-46.933 0-85.333 38.4-85.333 85.333s38.4 85.333 85.333 85.333c46.933 0 85.333-38.4 85.333-85.333s-38.4-85.333-85.333-85.333z" />
<glyph unicode="&#xe921;" glyph-name="trash" d="M602.453 491.947l-90.453-90.453-90.88 90.453-60.16-60.16 90.88-90.453-90.453-90.453 60.16-60.16 90.453 90.453 90.453-90.453 60.16 60.16-90.453 90.453 90.453 90.453-60.16 60.16zM661.333 768l-42.667 42.667h-213.333l-42.667-42.667h-149.333v-85.333h597.333v85.333h-149.333zM256 128c0-46.933 38.4-85.333 85.333-85.333h341.333c46.933 0 85.333 38.4 85.333 85.333v512h-512v-512zM341.333 554.667h341.333v-426.667h-341.333v426.667z" />
<glyph unicode="&#xe922;" glyph-name="dot-width" d="M256 512c-46.933 0-85.333-38.4-85.333-85.333s38.4-85.333 85.333-85.333c46.933 0 85.333 38.4 85.333 85.333s-38.4 85.333-85.333 85.333zM768 512c-46.933 0-85.333-38.4-85.333-85.333s38.4-85.333 85.333-85.333c46.933 0 85.333 38.4 85.333 85.333s-38.4 85.333-85.333 85.333zM512 512c-46.933 0-85.333-38.4-85.333-85.333s38.4-85.333 85.333-85.333c46.933 0 85.333 38.4 85.333 85.333s-38.4 85.333-85.333 85.333z" />
<glyph unicode="&#xe923;" glyph-name="circle-plus3" d="M563.2 682.667h-102.4v-204.8h-204.8v-102.4h204.8v-204.8h102.4v204.8h204.8v102.4h-204.8v204.8zM512 938.667c-282.112 0-512-229.888-512-512s229.888-512 512-512h409.6c56.32 0 102.4 46.080 102.4 102.4v409.6c0 282.112-229.888 512-512 512zM512 17.067c-225.792 0-409.6 183.808-409.6 409.6s183.808 409.6 409.6 409.6c225.792 0 409.6-183.808 409.6-409.6s-183.808-409.6-409.6-409.6z" />
<glyph unicode="&#xe924;" glyph-name="line-add" d="M256 42.667h725.333v85.333h-725.333v-85.333zM597.333 213.334h384v85.333h-384v-85.333zM426.667 384h554.667v85.333h-554.667v-85.333zM597.333 554.667h384v85.333h-384v-85.333zM256 810.667v-85.333h725.333v85.333h-725.333zM256 597.334h-85.333v-128h-128c0.427-0.427 0-85.333 0-85.333h128v-127.573c0.427-0.427 85.333 0 85.333 0v127.573h128v85.333h-128v128z" />
<glyph unicode="&#xe925;" glyph-name="line-delete" d="M369.778 298.667v-85.333h568.889v85.333h-568.889zM213.333 42.667h725.333v85.333h-725.333v-85.333zM535.706 384h402.961v85.333h-402.961v-85.333zM369.778 640v-85.333h568.889v85.333h-568.889zM213.333 810.667v-85.333h725.333v85.333h-725.333zM122.912 577.552l-60.34-60.34 90.51-90.511-90.51-90.509c0.603 0 60.34-60.339 60.34-60.339l90.51 90.509 90.208-90.206c0.603 0 60.34 60.339 60.34 60.339l-90.208 90.206 90.51 90.511-60.34 60.34-90.51-90.511-90.51 90.511z" />
<glyph unicode="&#xe926;" glyph-name="print" d="M870.4 631.467h-51.2v256h-614.4v-256h-51.2c-84.992 0-153.6-68.608-153.6-153.6v-307.2h204.8v-204.8h614.4v204.8h204.8v307.2c0 84.992-68.608 153.6-153.6 153.6zM307.2 785.067h409.6v-153.6h-409.6v153.6zM716.8 170.667v-102.4h-409.6v204.8h409.6v-102.4zM819.2 273.067v102.4h-614.4v-102.4h-102.4v204.8c0 28.16 23.040 51.2 51.2 51.2h716.8c28.16 0 51.2-23.040 51.2-51.2v-204.8h-102.4z" />
<glyph unicode="&#xe927;" glyph-name="star" d="M512 131.243l316.416-190.976-83.968 359.936 279.552 242.176-368.128 31.232-143.872 339.456-143.872-339.456-368.128-31.232 279.552-242.176-83.968-359.936 316.416 190.976z" />
<glyph unicode="&#xe928;" glyph-name="information2" d="M671.147 810.667h-318.293l-224.853-224.853v-318.293l224.853-224.853h318.293l224.853 224.853v318.293l-224.853 224.853zM810.667 302.934l-174.933-174.933h-247.467l-174.933 174.933v247.467l174.933 174.933h247.467l174.933-174.933v-247.467zM512 213.334c23.565 0 42.667 19.102 42.667 42.667s-19.102 42.667-42.667 42.667c-23.565 0-42.667-19.102-42.667-42.667s19.102-42.667 42.667-42.667zM469.333 640h85.333v-298.667h-85.333v298.667z" />
<glyph unicode="&#xe929;" glyph-name="inquiry" d="M298.667 298.667h341.333v-85.333h-341.333v85.333zM298.667 469.334h213.333v-85.333h-213.333v85.333zM768 384v-298.667h-597.333v597.333h214.187c2.133 30.293 9.387 58.88 20.48 85.333h-234.667c-46.933 0-85.333-38.4-85.333-85.333v-597.333c0-46.933 38.4-85.333 85.333-85.333h597.333c46.933 0 85.333 38.4 85.333 85.333v213.333l-85.333 85.333zM823.467 559.36c18.773 29.867 29.867 64.427 29.867 101.973 0 106.24-85.76 192-192 192s-192-85.76-192-192c0-106.24 85.76-192 191.573-192 37.547 0 72.533 11.093 101.973 29.867l133.12-133.12 60.587 60.587-133.12 132.693zM661.333 554.667c-58.88 0-106.667 47.787-106.667 106.667s47.787 106.667 106.667 106.667c58.88 0 106.667-47.787 106.667-106.667s-47.787-106.667-106.667-106.667z" />
</font>
</defs>
</svg>
